<svg width="20" height="20" viewBox="0 0 20 20" fill="none" xmlns="http://www.w3.org/2000/svg">
<g clip-path="url(#clip0_7_356)">
<path d="M9.79126 6.7456C7.99927 6.7456 6.53686 8.208 6.53686 9.99999C6.53686 11.792 7.99927 13.2544 9.79126 13.2544C11.5833 13.2544 13.0457 11.792 13.0457 9.99999C13.0457 8.208 11.5833 6.7456 9.79126 6.7456ZM19.552 9.99999C19.552 8.65234 19.5642 7.31689 19.4885 5.97167C19.4128 4.40917 19.0564 3.02245 17.9138 1.87988C16.7688 0.734857 15.3845 0.380853 13.822 0.305169C12.4744 0.229486 11.1389 0.241693 9.7937 0.241693C8.44604 0.241693 7.11059 0.229486 5.76538 0.305169C4.20288 0.380853 2.81616 0.737298 1.67358 1.87988C0.528559 3.0249 0.174554 4.40917 0.0988707 5.97167C0.0231871 7.31933 0.0353942 8.65478 0.0353942 9.99999C0.0353942 11.3452 0.0231871 12.6831 0.0988707 14.0283C0.174554 15.5908 0.531 16.9775 1.67358 18.1201C2.8186 19.2651 4.20288 19.6191 5.76538 19.6948C7.11304 19.7705 8.44849 19.7583 9.7937 19.7583C11.1414 19.7583 12.4768 19.7705 13.822 19.6948C15.3845 19.6191 16.7712 19.2627 17.9138 18.1201C19.0588 16.9751 19.4128 15.5908 19.4885 14.0283C19.5667 12.6831 19.552 11.3476 19.552 9.99999ZM9.79126 15.0073C7.02026 15.0073 4.78393 12.771 4.78393 9.99999C4.78393 7.229 7.02026 4.99267 9.79126 4.99267C12.5623 4.99267 14.7986 7.229 14.7986 9.99999C14.7986 12.771 12.5623 15.0073 9.79126 15.0073ZM15.0037 5.95702C14.3567 5.95702 13.8342 5.43456 13.8342 4.78759C13.8342 4.14062 14.3567 3.61816 15.0037 3.61816C15.6506 3.61816 16.1731 4.14062 16.1731 4.78759C16.1733 4.94122 16.1432 5.09337 16.0845 5.23534C16.0258 5.37731 15.9396 5.5063 15.831 5.61493C15.7224 5.72357 15.5934 5.8097 15.4514 5.8684C15.3094 5.9271 15.1573 5.95722 15.0037 5.95702Z" fill="#30778D"/>
</g>
<defs>
<clipPath id="clip0_7_356">
<rect width="20" height="20" fill="white"/>
</clipPath>
</defs>
</svg>
