<svg width="20" height="20" viewBox="0 0 20 20" fill="none" xmlns="http://www.w3.org/2000/svg">
<g clip-path="url(#clip0_7_354)">
<path fill-rule="evenodd" clip-rule="evenodd" d="M0.833328 2.36492C0.833328 1.9587 0.9947 1.56911 1.28194 1.28187C1.56919 0.994626 1.95877 0.833254 2.365 0.833254H17.6333C17.8346 0.832925 18.034 0.872306 18.2201 0.949143C18.4062 1.02598 18.5753 1.13876 18.7177 1.28103C18.8601 1.42331 18.9731 1.59227 19.0501 1.77826C19.1272 1.96425 19.1668 2.16361 19.1667 2.36492V17.6333C19.1669 17.8346 19.1274 18.034 19.0505 18.2201C18.9735 18.4062 18.8607 18.5753 18.7183 18.7177C18.576 18.8601 18.407 18.973 18.2209 19.0501C18.0349 19.1271 17.8355 19.1667 17.6342 19.1666H2.365C2.16378 19.1666 1.96454 19.1269 1.77866 19.0499C1.59277 18.9729 1.42389 18.86 1.28165 18.7177C1.13941 18.5754 1.0266 18.4064 0.94968 18.2205C0.872756 18.0346 0.833219 17.8353 0.833328 17.6341V2.36492ZM8.09 7.82325H10.5725V9.06992C10.9308 8.35325 11.8475 7.70825 13.225 7.70825C15.8658 7.70825 16.4917 9.13575 16.4917 11.7549V16.6066H13.8192V12.3516C13.8192 10.8599 13.4608 10.0183 12.5508 10.0183C11.2883 10.0183 10.7633 10.9258 10.7633 12.3516V16.6066H8.09V7.82325ZM3.50666 16.4924H6.18V7.70825H3.50666V16.4916V16.4924ZM6.5625 4.84325C6.56754 5.07215 6.52681 5.29974 6.4427 5.51268C6.35858 5.72562 6.23279 5.91962 6.07269 6.08328C5.91259 6.24694 5.72141 6.37698 5.51037 6.46576C5.29934 6.55454 5.07269 6.60027 4.84375 6.60027C4.6148 6.60027 4.38815 6.55454 4.17712 6.46576C3.96608 6.37698 3.7749 6.24694 3.6148 6.08328C3.4547 5.91962 3.32891 5.72562 3.2448 5.51268C3.16069 5.29974 3.11995 5.07215 3.125 4.84325C3.13489 4.39397 3.32032 3.96641 3.64157 3.65216C3.96282 3.3379 4.39435 3.16194 4.84375 3.16194C5.29314 3.16194 5.72467 3.3379 6.04592 3.65216C6.36717 3.96641 6.5526 4.39397 6.5625 4.84325Z" fill="#30778D"/>
</g>
<defs>
<clipPath id="clip0_7_354">
<rect width="20" height="20" fill="white"/>
</clipPath>
</defs>
</svg>
